# xmcd
#
# Track frame offsets:
#	151
#	30429
#	48964
#	64526
#	92847
#	116233
#	132382
#	150280
#	181965
#	200166
#	226477
#	240826
#	255157
#	282671
#	295557
#
# Disc length: 4195 seconds
#
# Revision: 0
# Processed by: cddbd v1.5.1PL2 Copyright (c) Steve Scherf et al.
# Submitted via: dBpowerAMP V4.0
#
DISCID=c710610f
DTITLE=misc - Lucerne Blues Festival 1998
DYEAR=1998
DGENRE=Blues
TTITLE0=Bob Stroger and The Chicago Legends - Extension 309
TTITLE1=Little Charlie and The Nightcats - Is that it ?
TTITLE2=T-Model Ford - Cut you loose
TTITLE3=Carl Weathersby - Looking out my window
TTITLE4=Bob Margoline - She and the devil
TTITLE5=Excello Legends - She's the one
TTITLE6=R. L. Burnside - Out on the road
TTITLE7=Mighty Sam McClain - Where you been so longe
TTITLE8=Bob Stroger and The Chicago Legends - $ 200 dresses
TTITLE9=Dave Specter - Blues spoken here
TTITLE10=Snooky Pryor - Someday baby
TTITLE11=Excello Legends - It's love baby
TTITLE12=Pinetop Perkins - Rain
TTITLE13=Frank Frost with Sam Carr - Keep yourn self together
TTITLE14=Bob Stroger and The Chicago Legends - Keep your hands off here
EXTD=Lucerne Blues Festival
EXTT0=
EXTT1=
EXTT2=
EXTT3=
EXTT4=
EXTT5=
EXTT6=
EXTT7=
EXTT8=
EXTT9=
EXTT10=
EXTT11=
EXTT12=
EXTT13=
EXTT14=
PLAYORDER=
